# =================================== #
# Created by Kajaman's Road Generator #
# =================================== #
mtllib RaceTrack02_BrakeBoard
o RaceTrack02_BrakeBoard
v 0.05416614 2.885673 700.0818
v 1.968405 2.885673 699.5024
v 0.05416614 4.885673 700.0818
v 1.968405 4.885673 699.5024
v 1.968405 2.885673 699.5024
v 0.05416614 2.885673 700.0818
v 1.968405 4.885673 699.5024
v 0.05416614 4.885673 700.0818
v -8.253809 4.947836 650.3012
v -6.366766 4.947836 649.6386
v -8.253809 6.947836 650.3012
v -6.366766 6.947836 649.6386
v -6.366766 4.947836 649.6386
v -8.253809 4.947836 650.3012
v -6.366766 6.947836 649.6386
v -8.253809 6.947836 650.3012
v -18.63357 6.867515 601.2767
v -16.74475 6.867515 600.6193
v -18.63357 8.867515 601.2767
v -16.74475 8.867515 600.6193
v -16.74475 6.867515 600.6193
v -18.63357 6.867515 601.2767
v -16.74475 8.867515 600.6193
v -18.63357 8.867515 601.2767
v -28.82722 8.539923 552.424
v -26.91455 8.539923 551.8395
v -28.82722 10.53992 552.424
v -26.91455 10.53992 551.8395
v -26.91455 8.539923 551.8395
v -28.82722 8.539923 552.424
v -26.91455 10.53992 551.8395
v -28.82722 10.53992 552.424
v -223.078 4.322047 778.2211
v -223.4093 4.322047 780.1935
v -223.078 6.322047 778.2211
v -223.4093 6.322047 780.1935
v -223.4093 4.322047 780.1935
v -223.078 4.322047 778.2211
v -223.4093 6.322047 780.1935
v -223.078 6.322047 778.2211
v -174.585 3.152936 792.9493
v -174.6817 3.152936 794.947
v -174.585 5.152936 792.9493
v -174.6817 5.152936 794.947
v -174.6817 3.152936 794.947
v -174.585 3.152936 792.9493
v -174.6817 5.152936 794.947
v -174.585 5.152936 792.9493
v -267.4276 1.381543 607.319
v -269.3294 1.381543 606.7001
v -267.4276 3.381543 607.319
v -269.3294 3.381543 606.7001
v -269.3294 1.381543 606.7001
v -267.4276 1.381543 607.319
v -269.3294 3.381543 606.7001
v -267.4276 3.381543 607.319
v -507.6715 12.81414 297.8276
v -509.6218 12.81414 298.2709
v -507.6715 14.81414 297.8276
v -509.6218 14.81414 298.2709
v -509.6218 12.81414 298.2709
v -507.6715 12.81414 297.8276
v -509.6218 14.81414 298.2709
v -507.6715 14.81414 297.8276
v -502.8012 13.11847 348.6211
v -504.641 13.11847 349.4054
v -502.8012 15.11847 348.6211
v -504.641 15.11847 349.4054
v -504.641 13.11847 349.4054
v -502.8012 13.11847 348.6211
v -504.641 15.11847 349.4054
v -502.8012 15.11847 348.6211
v -357.1459 3.693657 178.43
v -357.5128 3.693657 176.464
v -357.1459 5.693657 178.43
v -357.5128 5.693657 176.464
v -357.5128 3.693657 176.464
v -357.1459 3.693657 178.43
v -357.5128 5.693657 176.464
v -357.1459 5.693657 178.43
vt 0.25 0
vt 0 0
vt 0.25 1
vt 0 1
vt 0 0
vt 0.25 0
vt 0 1
vt 0.25 1
vt 0.5 0
vt 0.25 0
vt 0.5 1
vt 0.25 1
vt 0.25 0
vt 0.5 0
vt 0.25 1
vt 0.5 1
vt 0.75 0
vt 0.5 0
vt 0.75 1
vt 0.5 1
vt 0.5 0
vt 0.75 0
vt 0.5 1
vt 0.75 1
vt 1 0
vt 0.75 0
vt 1 1
vt 0.75 1
vt 0.75 0
vt 1 0
vt 0.75 1
vt 1 1
vt 0.25 0
vt 0 0
vt 0.25 1
vt 0 1
vt 0 0
vt 0.25 0
vt 0 1
vt 0.25 1
vt 0.5 0
vt 0.25 0
vt 0.5 1
vt 0.25 1
vt 0.25 0
vt 0.5 0
vt 0.25 1
vt 0.5 1
vt 0.25 0
vt 0 0
vt 0.25 1
vt 0 1
vt 0 0
vt 0.25 0
vt 0 1
vt 0.25 1
vt 0.25 0
vt 0 0
vt 0.25 1
vt 0 1
vt 0 0
vt 0.25 0
vt 0 1
vt 0.25 1
vt 0.5 0
vt 0.25 0
vt 0.5 1
vt 0.25 1
vt 0.25 0
vt 0.5 0
vt 0.25 1
vt 0.5 1
vt 0.25 0
vt 0 0
vt 0.25 1
vt 0 1
vt 0 0
vt 0.25 0
vt 0 1
vt 0.25 1
vn -0.2896746 0 -0.9571253
vn -0.2896746 0 -0.9571253
vn -0.2896746 0 -0.9571253
vn -0.2896746 0 -0.9571253
vn 0.2896746 0 0.9571253
vn 0.2896746 0 0.9571253
vn 0.2896746 0 0.9571253
vn 0.2896746 0 0.9571253
vn -0.3313003 0 -0.9435254
vn -0.3313003 0 -0.9435254
vn -0.3313003 0 -0.9435254
vn -0.3313003 0 -0.9435254
vn 0.3313003 0 0.9435254
vn 0.3313003 0 0.9435254
vn 0.3313003 0 0.9435254
vn 0.3313003 0 0.9435254
vn -0.3287384 0 -0.944421
vn -0.3287384 0 -0.944421
vn -0.3287384 0 -0.944421
vn -0.3287384 0 -0.944421
vn 0.3287384 0 0.944421
vn 0.3287384 0 0.944421
vn 0.3287384 0 0.944421
vn 0.3287384 0 0.944421
vn -0.2922389 0 -0.9563454
vn -0.2922389 0 -0.9563454
vn -0.2922389 0 -0.9563454
vn -0.2922389 0 -0.9563454
vn 0.2922389 0 0.9563454
vn 0.2922389 0 0.9563454
vn 0.2922389 0 0.9563454
vn 0.2922389 0 0.9563454
vn 0.9861854 0 0.1656459
vn 0.9861854 0 0.1656459
vn 0.9861854 0 0.1656459
vn 0.9861854 0 0.1656459
vn -0.9861854 0 -0.1656459
vn -0.9861854 0 -0.1656459
vn -0.9861854 0 -0.1656459
vn -0.9861854 0 -0.1656459
vn 0.9988302 0 0.04835461
vn 0.9988302 0 0.04835461
vn 0.9988302 0 0.04835461
vn 0.9988302 0 0.04835461
vn -0.9988302 0 -0.04835461
vn -0.9988302 0 -0.04835461
vn -0.9988302 0 -0.04835461
vn -0.9988302 0 -0.04835461
vn -0.3094539 0 0.9509146
vn -0.3094539 0 0.9509146
vn -0.3094539 0 0.9509146
vn -0.3094539 0 0.9509146
vn 0.3094539 0 -0.9509146
vn 0.3094539 0 -0.9509146
vn 0.3094539 0 -0.9509146
vn 0.3094539 0 -0.9509146
vn 0.2216778 0 0.9751199
vn 0.2216778 0 0.9751199
vn 0.2216778 0 0.9751199
vn 0.2216778 0 0.9751199
vn -0.2216778 0 -0.9751199
vn -0.2216778 0 -0.9751199
vn -0.2216778 0 -0.9751199
vn -0.2216778 0 -0.9751199
vn 0.3921543 0 0.9198995
vn 0.3921543 0 0.9198995
vn 0.3921543 0 0.9198995
vn 0.3921543 0 0.9198995
vn -0.3921543 0 -0.9198995
vn -0.3921543 0 -0.9198995
vn -0.3921543 0 -0.9198995
vn -0.3921543 0 -0.9198995
vn -0.9830308 0 0.1834409
vn -0.9830308 0 0.1834409
vn -0.9830308 0 0.1834409
vn -0.9830308 0 0.1834409
vn 0.9830308 0 -0.1834409
vn 0.9830308 0 -0.1834409
vn 0.9830308 0 -0.1834409
vn 0.9830308 0 -0.1834409
g group0
usemtl Mat0
f 1/1/1 3/3/3 2/2/2
f 4/4/4 2/2/2 3/3/3
f 5/5/5 7/7/7 6/6/6
f 8/8/8 6/6/6 7/7/7
f 9/9/9 11/11/11 10/10/10
f 12/12/12 10/10/10 11/11/11
f 13/13/13 15/15/15 14/14/14
f 16/16/16 14/14/14 15/15/15
f 17/17/17 19/19/19 18/18/18
f 20/20/20 18/18/18 19/19/19
f 21/21/21 23/23/23 22/22/22
f 24/24/24 22/22/22 23/23/23
f 25/25/25 27/27/27 26/26/26
f 28/28/28 26/26/26 27/27/27
f 29/29/29 31/31/31 30/30/30
f 32/32/32 30/30/30 31/31/31
f 33/33/33 35/35/35 34/34/34
f 36/36/36 34/34/34 35/35/35
f 37/37/37 39/39/39 38/38/38
f 40/40/40 38/38/38 39/39/39
f 41/41/41 43/43/43 42/42/42
f 44/44/44 42/42/42 43/43/43
f 45/45/45 47/47/47 46/46/46
f 48/48/48 46/46/46 47/47/47
f 49/49/49 51/51/51 50/50/50
f 52/52/52 50/50/50 51/51/51
f 53/53/53 55/55/55 54/54/54
f 56/56/56 54/54/54 55/55/55
f 57/57/57 59/59/59 58/58/58
f 60/60/60 58/58/58 59/59/59
f 61/61/61 63/63/63 62/62/62
f 64/64/64 62/62/62 63/63/63
f 65/65/65 67/67/67 66/66/66
f 68/68/68 66/66/66 67/67/67
f 69/69/69 71/71/71 70/70/70
f 72/72/72 70/70/70 71/71/71
f 73/73/73 75/75/75 74/74/74
f 76/76/76 74/74/74 75/75/75
f 77/77/77 79/79/79 78/78/78
f 80/80/80 78/78/78 79/79/79
