# =================================== #
# Created by Kajaman's Road Generator #
# =================================== #
mtllib RaceTrack02_GridLong
o RaceTrack02_GridLong
v 2.967888 0.05314273 -46.75124
v 4.822048 0.05314273 -47.50097
v 3.155317 0.04999914 -46.28772
v 5.009476 0.04999914 -47.03744
v 8.741529 0.03414292 -45.8262
v 10.6067 0.03395466 -46.54808
v 8.921996 0.03099968 -45.35991
v 10.78717 0.03081142 -46.0818
v -0.4445485 0.05 -53.3816
v 1.273426 0.05 -54.40559
v -0.1885499 0.05 -52.95211
v 1.529424 0.05 -53.9761
v 5.383337 0.05 -53.27225
v 7.15243 0.05 -54.20516
v 5.616564 0.05 -52.82998
v 7.385656 0.05 -53.76289
v -4.787314 0.05 -59.59507
v -3.202692 0.05 -60.8153
v -4.482255 0.05 -59.19891
v -2.897633 0.05 -60.41915
v 1.013173 0.05 -60.20244
v 2.643703 0.05 -61.36061
v 1.302717 0.05 -59.79481
v 2.933247 0.05 -60.95298
v -9.808155 0.05 -65.41885
v -8.337133 0.05 -66.77387
v -9.469398 0.05 -65.05109
v -7.998377 0.05 -66.40612
v -4.084446 0.05 -66.55221
v -2.573982 0.05 -67.86312
v -3.756717 0.05 -66.17459
v -2.246253 0.05 -67.4855
v -15.30195 0.05 -70.84409
v -13.94231 0.05 -72.31084
v -14.93526 0.05 -70.50417
v -13.57562 0.05 -71.97092
v -9.674956 0.05 -72.42491
v -8.264352 0.05 -73.84273
v -9.320503 0.05 -72.07226
v -7.909899 0.05 -73.49007
v -21.13607 0.05 -76.11897
v -19.83328 0.05 -77.63645
v -20.7567 0.05 -75.79328
v -19.45391 0.05 -77.31075
v -15.58765 0.05 -77.93691
v -14.25913 0.05 -79.43191
v -15.2139 0.05 -77.60478
v -13.88538 0.05 -79.09978
v -27.22815 0.05 -81.00665
v -26.00822 0.05 -82.59151
v -26.83194 0.05 -80.70167
v -25.612 0.05 -82.28652
v -21.70696 0.05 -83.14194
v -20.40992 0.05 -84.66434
v -21.32637 0.05 -82.81769
v -20.02932 0.05 -84.34007
v -33.42556 0.05 -86.1889
v -32.17273 0.05 -87.74787
v -33.03582 0.05 -85.87569
v -31.78298 0.05 -87.43466
v -27.93215 0.05 -88.21703
v -26.66716 0.05 -89.76615
v -27.54487 0.05 -87.90078
v -26.27988 0.05 -89.4499
v -39.70994 0.05 -91.01736
v -38.4899 0.05 -92.60213
v -39.31375 0.05 -90.71235
v -38.09371 0.05 -92.29713
v -34.26555 0.05 -93.16325
v -33.03916 0.05 -94.74311
v -33.87058 0.05 -92.85665
v -32.6442 0.05 -94.43652
v -46.09249 0.05 -95.71274
v -44.90578 0.05 -97.32262
v -45.69002 0.05 -95.41606
v -44.50331 0.05 -97.02594
v -40.5683 0.05 -98.04888
v -39.31652 0.05 -99.6087
v -40.17835 0.05 -97.73594
v -38.92656 0.05 -99.29575
v -52.3208 0.05 -101.1041
v -51.03463 0.05 -102.6357
v -51.9379 0.05 -100.7826
v -50.65173 0.05 -102.3141
v -46.79201 0.05 -103.0365
v -45.51515 0.05 -104.5758
v -46.40717 0.05 -102.7173
v -45.13031 0.05 -104.2566
v -58.49512 0.05 -106.2828
v -57.18434 0.05 -107.7933
v -58.11748 0.05 -105.9551
v -56.80669 0.05 -107.4656
v -52.94287 0.05 -108.1249
v -51.64671 0.05 -109.6481
v -52.56208 0.05 -107.8009
v -51.26592 0.05 -109.324
v -64.58555 0.05 -111.5613
v -63.2505 0.05 -113.0504
v -64.21326 0.05 -111.2275
v -62.87821 0.05 -112.7167
v -58.84174 0.05 -113.41
v -57.46785 0.05 -114.8634
v -58.47839 0.05 -113.0665
v -57.1045 0.05 -114.5199
v -70.17448 0.05 -117.7889
v -68.69988 0.05 -119.14
v -69.83671 0.05 -117.4202
v -68.3621 0.05 -118.7714
v -64.4269 0.05 -119.0027
v -62.96392 0.05 -120.3664
v -64.08598 0.05 -118.637
v -62.62299 0.05 -120.0007
v -75.31676 0.05 -124.4959
v -73.68132 0.05 -125.6471
v -75.02895 0.05 -124.0871
v -73.39352 0.05 -125.2383
v -69.50576 0.05 -125.0112
v -67.93063 0.05 -126.2437
v -69.19764 0.05 -124.6175
v -67.62252 0.05 -125.8499
v -79.64373 0.05 -131.8332
v -77.85434 0.05 -132.7265
v -79.42039 0.05 -131.3858
v -77.631 0.05 -132.2792
v -73.81918 0.05 -131.5003
v -72.09293 0.05 -132.5103
v -73.56668 0.05 -131.0687
v -71.84044 0.05 -132.0787
v -82.67688 0.05 -139.9573
v -80.74784 0.05 -140.4853
v -82.54487 0.05 -139.475
v -80.61584 0.05 -140.003
v -77.02085 0.05 -138.5197
v -75.13957 0.05 -139.1985
v -76.85114 0.05 -138.0494
v -74.96987 0.05 -138.7282
v -83.91431 0.05 -148.6095
v -81.91692 0.05 -148.7117
v -83.88877 0.05 -148.1102
v -81.89138 0.05 -148.2123
v -78.70852 0.05 -145.9862
v -76.72449 0.05 -146.2384
v -78.64545 0.05 -145.4902
v -76.66143 0.05 -145.7424
v -83.51447 0.05 -157.1698
v -81.52748 0.05 -156.942
v -83.57142 0.05 -156.6731
v -81.58443 0.05 -156.4453
v -78.83163 0.05 -153.6981
v -76.83503 0.05 -153.5814
v -78.8608 0.05 -153.1989
v -76.8642 0.05 -153.0822
v -81.97838 0.05 -165.4259
v -80.03056 0.05 -164.972
v -82.09185 0.05 -164.939
v -80.14404 0.05 -164.4851
v -77.74879 0.05 -161.4173
v -75.78547 0.05 -161.036
v -77.84411 0.05 -160.9264
v -75.88079 0.05 -160.5452
vt 1 0
vt 0 0
vt 1 1
vt 0 1
vt 1 0
vt 0 0
vt 1 1
vt 0 1
vt 1 0
vt 0 0
vt 1 1
vt 0 1
vt 1 0
vt 0 0
vt 1 1
vt 0 1
vt 1 0
vt 0 0
vt 1 1
vt 0 1
vt 1 0
vt 0 0
vt 1 1
vt 0 1
vt 1 0
vt 0 0
vt 1 1
vt 0 1
vt 1 0
vt 0 0
vt 1 1
vt 0 1
vt 1 0
vt 0 0
vt 1 1
vt 0 1
vt 1 0
vt 0 0
vt 1 1
vt 0 1
vt 1 0
vt 0 0
vt 1 1
vt 0 1
vt 1 0
vt 0 0
vt 1 1
vt 0 1
vt 1 0
vt 0 0
vt 1 1
vt 0 1
vt 1 0
vt 0 0
vt 1 1
vt 0 1
vt 1 0
vt 0 0
vt 1 1
vt 0 1
vt 1 0
vt 0 0
vt 1 1
vt 0 1
vt 1 0
vt 0 0
vt 1 1
vt 0 1
vt 1 0
vt 0 0
vt 1 1
vt 0 1
vt 1 0
vt 0 0
vt 1 1
vt 0 1
vt 1 0
vt 0 0
vt 1 1
vt 0 1
vt 1 0
vt 0 0
vt 1 1
vt 0 1
vt 1 0
vt 0 0
vt 1 1
vt 0 1
vt 1 0
vt 0 0
vt 1 1
vt 0 1
vt 1 0
vt 0 0
vt 1 1
vt 0 1
vt 1 0
vt 0 0
vt 1 1
vt 0 1
vt 1 0
vt 0 0
vt 1 1
vt 0 1
vt 1 0
vt 0 0
vt 1 1
vt 0 1
vt 1 0
vt 0 0
vt 1 1
vt 0 1
vt 1 0
vt 0 0
vt 1 1
vt 0 1
vt 1 0
vt 0 0
vt 1 1
vt 0 1
vt 1 0
vt 0 0
vt 1 1
vt 0 1
vt 1 0
vt 0 0
vt 1 1
vt 0 1
vt 1 0
vt 0 0
vt 1 1
vt 0 1
vt 1 0
vt 0 0
vt 1 1
vt 0 1
vt 1 0
vt 0 0
vt 1 1
vt 0 1
vt 1 0
vt 0 0
vt 1 1
vt 0 1
vt 1 0
vt 0 0
vt 1 1
vt 0 1
vt 1 0
vt 0 0
vt 1 1
vt 0 1
vt 1 0
vt 0 0
vt 1 1
vt 0 1
vt 1 0
vt 0 0
vt 1 1
vt 0 1
vn 0.002356861 0.9999803 0.005828764
vn 0.002356846 0.9999803 0.005828742
vn 0.002356846 0.9999803 0.005828742
vn 0.002356831 0.9999803 0.005828721
vn 0.00235684 0.9999803 0.005828719
vn 0.002356842 0.9999803 0.005828721
vn 0.002356842 0.9999803 0.005828721
vn 0.002356843 0.9999803 0.005828723
vn 0 1 0
vn 0 1 0
vn 0 1 0
vn 0 1 0
vn 0 1 0
vn 0 1 0
vn 0 1 0
vn 0 1 0
vn 0 1 0
vn 0 1 0
vn 0 1 0
vn 0 1 0
vn 0 1 0
vn 0 1 0
vn 0 1 0
vn 0 1 0
vn 0 1 0
vn 0 1 0
vn 0 1 0
vn 0 1 0
vn 0 1 0
vn 0 1 0
vn 0 1 0
vn 0 1 0
vn 0 1 0
vn 0 1 0
vn 0 1 0
vn 0 1 0
vn 0 1 0
vn 0 1 0
vn 0 1 0
vn 0 1 0
vn 0 1 0
vn 0 1 0
vn 0 1 0
vn 0 1 0
vn 0 1 0
vn 0 1 0
vn 0 1 0
vn 0 1 0
vn 0 1 0
vn 0 1 0
vn 0 1 0
vn 0 1 0
vn 0 1 0
vn 0 1 0
vn 0 1 0
vn 0 1 0
vn 0 1 0
vn 0 1 0
vn 0 1 0
vn 0 1 0
vn 0 1 0
vn 0 1 0
vn 0 1 0
vn 0 1 0
vn 0 1 0
vn 0 1 0
vn 0 1 0
vn 0 1 0
vn 0 1 0
vn 0 1 0
vn 0 1 0
vn 0 1 0
vn 0 1 0
vn 0 1 0
vn 0 1 0
vn 0 1 0
vn 0 1 0
vn 0 1 0
vn 0 1 0
vn 0 1 0
vn 0 1 0
vn 0 1 0
vn 0 1 0
vn 0 1 0
vn 0 1 0
vn 0 1 0
vn 0 1 0
vn 0 1 0
vn 0 1 0
vn 0 1 0
vn 0 1 0
vn 0 1 0
vn 0 1 0
vn 0 1 0
vn 0 1 0
vn 0 1 0
vn 0 1 0
vn 0 1 0
vn 0 1 0
vn 0 1 0
vn 0 1 0
vn 0 1 0
vn 0 1 0
vn 0 1 0
vn 0 1 0
vn 0 1 0
vn 0 1 0
vn 0 1 0
vn 0 1 0
vn 0 1 0
vn 0 1 0
vn 0 1 0
vn 0 1 0
vn 0 1 0
vn 0 1 0
vn 0 1 0
vn 0 1 0
vn 0 1 0
vn 0 1 0
vn 0 1 0
vn 0 1 0
vn 0 1 0
vn 0 1 0
vn 0 1 0
vn 0 1 0
vn 0 1 0
vn 0 1 0
vn 0 1 0
vn 0 1 0
vn 0 1 0
vn 0 1 0
vn 0 1 0
vn 0 1 0
vn 0 1 0
vn 0 1 0
vn 0 1 0
vn 0 1 0
vn 0 1 0
vn 0 1 0
vn 0 1 0
vn 0 1 0
vn 0 1 0
vn 0 1 0
vn 0 1 0
vn 0 1 0
vn 0 1 0
vn 0 1 0
vn 0 1 0
vn 0 1 0
vn 0 1 0
vn 0 1 0
vn 0 1 0
vn 0 1 0
vn 0 1 0
vn 0 1 0
vn 0 1 0
vn 0 1 0
vn 0 1 0
vn 0 1 0
vn 0 1 0
g group0
usemtl Mat0
f 1/1/1 3/3/3 2/2/2
f 4/4/4 2/2/2 3/3/3
f 5/5/5 7/7/7 6/6/6
f 8/8/8 6/6/6 7/7/7
f 9/9/9 11/11/11 10/10/10
f 12/12/12 10/10/10 11/11/11
f 13/13/13 15/15/15 14/14/14
f 16/16/16 14/14/14 15/15/15
f 17/17/17 19/19/19 18/18/18
f 20/20/20 18/18/18 19/19/19
f 21/21/21 23/23/23 22/22/22
f 24/24/24 22/22/22 23/23/23
f 25/25/25 27/27/27 26/26/26
f 28/28/28 26/26/26 27/27/27
f 29/29/29 31/31/31 30/30/30
f 32/32/32 30/30/30 31/31/31
f 33/33/33 35/35/35 34/34/34
f 36/36/36 34/34/34 35/35/35
f 37/37/37 39/39/39 38/38/38
f 40/40/40 38/38/38 39/39/39
f 41/41/41 43/43/43 42/42/42
f 44/44/44 42/42/42 43/43/43
f 45/45/45 47/47/47 46/46/46
f 48/48/48 46/46/46 47/47/47
f 49/49/49 51/51/51 50/50/50
f 52/52/52 50/50/50 51/51/51
f 53/53/53 55/55/55 54/54/54
f 56/56/56 54/54/54 55/55/55
f 57/57/57 59/59/59 58/58/58
f 60/60/60 58/58/58 59/59/59
f 61/61/61 63/63/63 62/62/62
f 64/64/64 62/62/62 63/63/63
f 65/65/65 67/67/67 66/66/66
f 68/68/68 66/66/66 67/67/67
f 69/69/69 71/71/71 70/70/70
f 72/72/72 70/70/70 71/71/71
f 73/73/73 75/75/75 74/74/74
f 76/76/76 74/74/74 75/75/75
f 77/77/77 79/79/79 78/78/78
f 80/80/80 78/78/78 79/79/79
f 81/81/81 83/83/83 82/82/82
f 84/84/84 82/82/82 83/83/83
f 85/85/85 87/87/87 86/86/86
f 88/88/88 86/86/86 87/87/87
f 89/89/89 91/91/91 90/90/90
f 92/92/92 90/90/90 91/91/91
f 93/93/93 95/95/95 94/94/94
f 96/96/96 94/94/94 95/95/95
f 97/97/97 99/99/99 98/98/98
f 100/100/100 98/98/98 99/99/99
f 101/101/101 103/103/103 102/102/102
f 104/104/104 102/102/102 103/103/103
f 105/105/105 107/107/107 106/106/106
f 108/108/108 106/106/106 107/107/107
f 109/109/109 111/111/111 110/110/110
f 112/112/112 110/110/110 111/111/111
f 113/113/113 115/115/115 114/114/114
f 116/116/116 114/114/114 115/115/115
f 117/117/117 119/119/119 118/118/118
f 120/120/120 118/118/118 119/119/119
f 121/121/121 123/123/123 122/122/122
f 124/124/124 122/122/122 123/123/123
f 125/125/125 127/127/127 126/126/126
f 128/128/128 126/126/126 127/127/127
f 129/129/129 131/131/131 130/130/130
f 132/132/132 130/130/130 131/131/131
f 133/133/133 135/135/135 134/134/134
f 136/136/136 134/134/134 135/135/135
f 137/137/137 139/139/139 138/138/138
f 140/140/140 138/138/138 139/139/139
f 141/141/141 143/143/143 142/142/142
f 144/144/144 142/142/142 143/143/143
f 145/145/145 147/147/147 146/146/146
f 148/148/148 146/146/146 147/147/147
f 149/149/149 151/151/151 150/150/150
f 152/152/152 150/150/150 151/151/151
f 153/153/153 155/155/155 154/154/154
f 156/156/156 154/154/154 155/155/155
f 157/157/157 159/159/159 158/158/158
f 160/160/160 158/158/158 159/159/159
